<?xml version="1.0" encoding="UTF-8" standalone="no"?>
<svg
   version="1.1"
   id="Layer_1"
   x="0px"
   y="0px"
   width="119.828px"
   height="122.88px"
   viewBox="0 0 119.828 122.88"
   enable-background="new 0 0 119.828 122.88"
   xml:space="preserve"
   sodipodi:docname="search-line-icon.svg"
   inkscape:version="1.3 (0e150ed6c4, 2023-07-21)"
   xmlns:inkscape="http://www.inkscape.org/namespaces/inkscape"
   xmlns:sodipodi="http://sodipodi.sourceforge.net/DTD/sodipodi-0.dtd"
   xmlns="http://www.w3.org/2000/svg"
   xmlns:svg="http://www.w3.org/2000/svg"><defs
     id="defs1" /><sodipodi:namedview
     id="namedview1"
     pagecolor="#ffffff"
     bordercolor="#666666"
     borderopacity="1.0"
     inkscape:showpageshadow="2"
     inkscape:pageopacity="0.0"
     inkscape:pagecheckerboard="0"
     inkscape:deskcolor="#d1d1d1"
     inkscape:zoom="9.9039716"
     inkscape:cx="59.925455"
     inkscape:cy="61.439999"
     inkscape:window-width="2400"
     inkscape:window-height="1494"
     inkscape:window-x="-11"
     inkscape:window-y="-11"
     inkscape:window-maximized="1"
     inkscape:current-layer="Layer_1" /><g
     id="g1"
     style="fill:#ffffff"><path
       d="M48.319,0C61.662,0,73.74,5.408,82.484,14.152c8.744,8.744,14.152,20.823,14.152,34.166 c0,12.809-4.984,24.451-13.117,33.098c0.148,0.109,0.291,0.23,0.426,0.364l34.785,34.737c1.457,1.449,1.465,3.807,0.014,5.265 c-1.449,1.458-3.807,1.464-5.264,0.015L78.695,87.06c-0.221-0.22-0.408-0.46-0.563-0.715c-8.213,6.447-18.564,10.292-29.814,10.292 c-13.343,0-25.423-5.408-34.167-14.152C5.408,73.741,0,61.661,0,48.318s5.408-25.422,14.152-34.166C22.896,5.409,34.976,0,48.319,0 L48.319,0z M77.082,19.555c-7.361-7.361-17.53-11.914-28.763-11.914c-11.233,0-21.403,4.553-28.764,11.914 C12.194,26.916,7.641,37.085,7.641,48.318c0,11.233,4.553,21.403,11.914,28.764c7.36,7.361,17.53,11.914,28.764,11.914 c11.233,0,21.402-4.553,28.763-11.914c7.361-7.36,11.914-17.53,11.914-28.764C88.996,37.085,84.443,26.916,77.082,19.555 L77.082,19.555z"
       id="path1"
       style="fill:#ffffff" /></g></svg>
